<svg id="svg" version="1.1" xmlns="http://www.w3.org/2000/svg" xmlns:xlink="http://www.w3.org/1999/xlink" width="400" height="323.6842105263158" viewBox="0, 0, 400,323.6842105263158"><g id="svgg"><path id="path0" d="M153.716 22.910 C 153.419 23.207,153.486 24.555,153.807 24.753 C 154.115 24.944,155.140 27.866,155.144 28.563 C 155.145 28.797,155.339 29.358,155.575 29.811 C 155.812 30.264,156.263 31.648,156.578 32.888 C 156.893 34.127,157.279 35.433,157.435 35.789 C 158.060 37.214,158.471 38.463,158.874 40.162 C 159.106 41.142,159.467 42.526,159.676 43.239 C 159.885 43.951,160.253 45.336,160.493 46.316 C 160.734 47.296,161.172 48.826,161.468 49.717 C 161.952 51.177,162.713 54.596,163.127 57.166 C 163.213 57.700,163.402 58.429,163.547 58.785 C 163.897 59.646,164.858 65.084,164.858 66.203 C 164.858 66.689,165.034 67.405,165.248 67.795 C 165.613 68.458,165.951 70.936,166.849 79.514 C 167.313 83.956,167.324 96.132,166.866 99.595 C 166.678 101.020,166.513 102.373,166.501 102.601 C 166.436 103.776,165.372 103.172,162.527 100.347 C 158.551 96.397,154.076 92.386,150.241 89.334 C 149.641 88.856,148.149 87.650,146.926 86.653 C 145.704 85.657,144.401 84.680,144.032 84.482 C 143.663 84.285,143.206 83.997,143.016 83.842 C 142.047 83.052,138.597 80.648,138.433 80.648 C 138.329 80.648,137.637 80.234,136.895 79.728 C 134.268 77.937,132.926 77.133,130.364 75.817 C 128.939 75.085,127.489 74.269,127.141 74.004 C 126.793 73.739,126.383 73.522,126.230 73.522 C 126.077 73.522,124.831 73.000,123.462 72.362 C 119.296 70.421,117.767 69.810,114.656 68.840 C 113.676 68.535,112.583 68.168,112.227 68.024 C 111.870 67.881,110.413 67.511,108.988 67.203 C 107.563 66.895,105.481 66.433,104.361 66.178 C 102.371 65.723,101.097 65.762,97.652 66.382 C 96.761 66.543,94.648 66.922,92.955 67.225 C 89.242 67.889,83.383 69.602,78.543 71.437 C 77.296 71.910,75.343 72.646,74.203 73.072 C 73.063 73.498,71.970 73.968,71.774 74.117 C 71.578 74.266,70.503 74.723,69.386 75.131 C 68.269 75.539,67.276 76.000,67.180 76.155 C 67.085 76.310,66.771 76.437,66.483 76.437 C 65.968 76.437,64.843 76.960,56.518 81.064 C 50.456 84.054,42.648 88.224,39.190 90.320 C 38.567 90.697,37.838 91.109,37.571 91.233 C 37.304 91.358,35.439 92.453,33.427 93.665 C 31.414 94.878,29.692 95.870,29.599 95.870 C 29.506 95.870,28.953 96.235,28.369 96.680 C 27.785 97.126,27.221 97.490,27.116 97.490 C 26.677 97.490,22.894 100.277,22.934 100.571 C 22.958 100.747,23.455 101.139,24.039 101.442 C 24.623 101.745,25.247 102.112,25.425 102.256 C 25.603 102.400,26.405 102.804,27.206 103.153 C 28.008 103.502,28.737 103.882,28.826 103.997 C 28.971 104.185,30.801 105.220,34.008 106.927 C 39.803 110.011,60.368 123.505,61.538 124.992 C 61.628 125.105,62.138 125.473,62.672 125.810 C 63.206 126.147,63.935 126.681,64.291 126.996 C 65.089 127.701,70.433 132.062,71.678 133.024 C 76.333 136.617,86.702 147.063,91.440 152.931 C 93.582 155.586,98.462 162.215,98.462 162.473 C 98.462 162.593,98.793 163.143,99.199 163.694 C 100.166 165.008,102.237 168.436,102.660 169.424 C 102.844 169.852,103.136 170.421,103.308 170.688 C 103.880 171.573,105.888 176.152,106.108 177.072 C 106.227 177.569,106.460 178.149,106.627 178.361 C 107.607 179.609,106.793 180.560,104.556 180.781 C 103.366 180.899,101.908 181.145,101.317 181.327 C 99.743 181.815,95.714 182.672,94.998 182.672 C 94.658 182.672,94.242 182.793,94.073 182.941 C 93.904 183.089,92.818 183.468,91.660 183.783 C 89.363 184.409,87.009 185.158,85.992 185.587 C 85.636 185.737,84.470 186.152,83.401 186.509 C 79.952 187.659,76.945 188.807,76.063 189.308 C 75.591 189.577,75.035 189.798,74.829 189.798 C 74.623 189.798,73.698 190.139,72.773 190.555 C 70.374 191.637,65.889 193.648,63.806 194.575 C 59.358 196.556,41.134 205.755,41.134 206.020 C 41.134 206.183,40.978 206.316,40.789 206.316 C 40.479 206.316,38.470 207.372,32.570 210.639 C 29.151 212.532,29.576 212.724,42.279 215.024 C 42.998 215.154,43.755 215.365,43.962 215.493 C 44.168 215.621,45.867 216.006,47.736 216.349 C 49.605 216.693,51.398 217.113,51.721 217.283 C 52.472 217.680,56.693 218.623,57.714 218.623 C 58.143 218.623,58.640 218.770,58.819 218.949 C 59.193 219.323,62.542 220.243,63.530 220.243 C 63.895 220.243,64.653 220.439,65.214 220.679 C 66.674 221.302,68.304 221.789,69.798 222.047 C 70.510 222.170,71.239 222.378,71.417 222.510 C 71.595 222.642,72.834 223.077,74.170 223.477 C 78.175 224.677,81.741 225.797,82.429 226.072 C 84.850 227.037,86.509 227.645,87.773 228.031 C 88.575 228.275,89.304 228.554,89.393 228.652 C 89.482 228.749,90.429 229.109,91.498 229.453 C 92.567 229.796,93.660 230.239,93.927 230.437 C 94.194 230.635,94.996 230.990,95.709 231.226 C 96.421 231.461,98.170 232.204,99.595 232.876 C 111.478 238.482,111.581 238.584,107.530 240.820 C 106.729 241.263,105.781 241.803,105.425 242.021 C 103.877 242.966,101.776 244.199,100.710 244.788 C 98.129 246.215,93.929 248.640,91.336 250.201 C 89.822 251.113,88.073 252.115,87.449 252.429 C 86.826 252.742,85.514 253.489,84.534 254.089 C 83.555 254.689,82.243 255.436,81.619 255.749 C 78.134 257.500,77.494 258.773,80.081 258.809 C 81.016 258.822,82.583 258.968,83.563 259.133 C 84.543 259.299,87.895 259.660,91.012 259.937 C 94.130 260.214,97.919 260.573,99.433 260.734 C 100.947 260.896,104.518 261.186,107.368 261.380 C 110.219 261.573,112.998 261.870,113.545 262.040 C 114.092 262.209,115.383 262.348,116.414 262.348 C 117.445 262.348,119.256 262.559,120.439 262.817 C 121.623 263.074,124.850 263.452,127.611 263.655 C 138.427 264.453,141.030 264.855,141.716 265.835 C 141.975 266.204,142.732 266.838,143.401 267.244 C 144.069 267.650,144.693 268.093,144.789 268.229 C 144.884 268.366,145.482 268.694,146.118 268.960 C 147.367 269.482,148.340 270.686,148.340 271.710 C 148.340 272.062,148.469 272.430,148.627 272.528 C 148.785 272.626,149.015 273.242,149.138 273.897 C 149.349 275.023,151.200 278.325,152.014 279.028 C 152.220 279.206,152.962 280.081,153.664 280.972 C 155.639 283.481,162.660 290.548,166.964 294.358 C 169.101 296.251,170.923 297.876,171.012 297.969 C 171.101 298.063,172.267 299.005,173.603 300.064 C 174.939 301.122,176.178 302.151,176.356 302.350 C 176.534 302.549,176.899 302.810,177.166 302.930 C 177.433 303.049,178.526 303.798,179.595 304.595 C 180.664 305.391,182.158 306.367,182.915 306.763 C 183.672 307.159,184.291 307.591,184.291 307.723 C 184.291 307.855,184.984 308.218,185.830 308.531 C 186.676 308.844,187.518 309.211,187.700 309.347 C 191.377 312.085,214.193 312.025,215.894 309.273 C 215.991 309.116,216.322 308.988,216.629 308.988 C 216.936 308.988,217.985 308.467,218.958 307.830 C 219.932 307.193,221.057 306.540,221.457 306.380 C 221.858 306.220,222.186 305.940,222.186 305.757 C 222.186 305.574,222.356 305.425,222.563 305.425 C 222.990 305.425,228.177 301.605,231.093 299.143 C 242.536 289.480,254.202 277.098,254.242 274.575 C 254.271 272.742,255.529 272.547,270.607 272.030 C 275.417 271.865,283.142 271.600,287.773 271.441 C 292.405 271.283,296.486 271.139,296.842 271.123 C 297.520 271.091,296.022 269.474,295.315 269.474 C 295.041 269.474,289.978 267.136,288.907 266.515 C 288.405 266.225,284.734 264.444,280.486 262.431 C 277.567 261.048,277.840 261.249,278.071 260.645 C 278.177 260.370,278.800 260.047,279.456 259.928 C 280.667 259.709,283.034 258.995,284.211 258.496 C 284.567 258.344,286.024 257.958,287.449 257.638 C 288.874 257.317,290.259 256.883,290.526 256.672 C 290.794 256.462,291.960 256.102,293.117 255.874 C 294.275 255.646,295.660 255.282,296.194 255.067 C 297.690 254.463,299.304 253.989,300.729 253.736 C 301.441 253.609,302.316 253.323,302.672 253.099 C 303.028 252.876,304.194 252.518,305.263 252.305 C 306.332 252.092,307.498 251.790,307.854 251.634 C 309.030 251.120,311.396 250.413,312.713 250.183 C 313.425 250.058,314.154 249.860,314.332 249.742 C 314.685 249.510,317.099 248.757,320.162 247.924 C 321.231 247.633,322.358 247.262,322.668 247.099 C 322.977 246.935,323.434 246.802,323.683 246.802 C 324.191 246.802,327.181 245.941,328.421 245.437 C 328.866 245.256,330.324 244.841,331.660 244.516 C 332.996 244.190,334.672 243.636,335.385 243.285 L 336.680 242.646 335.709 242.437 C 335.174 242.322,334.455 242.073,334.111 241.884 C 333.767 241.695,332.178 241.267,330.582 240.932 C 328.985 240.598,327.518 240.197,327.321 240.041 C 327.124 239.885,326.526 239.674,325.992 239.571 C 323.767 239.145,320.706 238.396,319.190 237.906 C 318.300 237.619,316.915 237.244,316.113 237.074 C 314.278 236.685,312.258 236.122,311.417 235.764 C 311.061 235.612,310.040 235.347,309.150 235.175 C 306.633 234.687,304.673 234.161,304.304 233.874 C 304.119 233.730,303.273 233.521,302.424 233.410 C 301.574 233.300,300.418 232.971,299.854 232.679 L 298.828 232.148 300.074 231.542 C 300.759 231.209,301.563 230.716,301.860 230.448 C 302.156 230.179,302.573 229.960,302.786 229.960 C 302.999 229.960,304.097 229.377,305.225 228.664 C 306.353 227.951,307.367 227.368,307.479 227.368 C 307.590 227.368,308.597 226.822,309.716 226.154 C 310.836 225.486,312.332 224.654,313.042 224.305 C 313.751 223.956,314.769 223.373,315.304 223.010 C 315.838 222.646,316.931 222.018,317.733 221.614 C 318.534 221.210,319.919 220.457,320.810 219.941 C 321.700 219.425,323.085 218.672,323.887 218.269 C 324.688 217.865,325.417 217.444,325.506 217.333 C 325.595 217.222,326.251 216.831,326.964 216.463 C 327.676 216.096,328.842 215.465,329.555 215.061 C 331.370 214.031,335.724 211.597,337.652 210.535 C 338.543 210.044,339.854 209.310,340.567 208.904 C 341.279 208.499,343.466 207.283,345.425 206.202 C 347.385 205.122,349.061 204.159,349.150 204.062 C 349.239 203.966,349.968 203.564,350.769 203.169 C 351.571 202.774,353.028 201.990,354.008 201.426 C 357.787 199.253,359.099 198.515,361.134 197.421 C 362.291 196.798,363.968 195.853,364.858 195.321 C 365.749 194.789,366.915 194.127,367.449 193.850 C 367.984 193.573,369.441 192.769,370.688 192.064 C 371.935 191.358,373.538 190.469,374.251 190.089 C 377.618 188.293,377.247 187.867,372.308 187.857 C 370.348 187.854,367.870 187.696,366.802 187.508 C 364.650 187.128,358.684 186.765,346.235 186.258 C 341.692 186.073,337.084 185.773,335.995 185.592 C 334.906 185.411,332.574 185.262,330.813 185.261 C 323.964 185.255,321.967 184.515,323.990 182.732 C 324.735 182.076,325.417 181.446,325.506 181.334 C 325.595 181.222,326.324 180.586,327.126 179.922 C 327.927 179.257,329.895 177.514,331.498 176.047 C 333.101 174.581,336.016 171.958,337.976 170.219 C 339.935 168.479,341.759 166.816,342.028 166.524 C 342.297 166.231,343.172 165.462,343.971 164.815 C 344.771 164.168,345.940 163.148,346.570 162.548 C 347.199 161.948,348.839 160.448,350.214 159.214 C 354.254 155.587,354.770 155.681,338.462 157.082 C 336.769 157.227,332.397 157.513,328.745 157.716 C 325.093 157.919,320.866 158.299,319.352 158.559 C 317.838 158.820,315.661 159.032,314.513 159.030 C 313.366 159.029,311.617 159.171,310.627 159.346 C 309.636 159.520,305.911 159.824,302.348 160.022 C 298.785 160.219,294.340 160.504,292.470 160.656 C 281.377 161.554,282.536 161.793,281.445 158.381 C 279.514 152.340,275.133 145.375,268.944 138.507 C 263.465 132.426,260.181 130.153,250.040 125.422 C 248.526 124.715,246.923 124.034,246.478 123.909 C 246.032 123.783,245.231 123.487,244.696 123.251 C 243.026 122.512,242.128 122.165,241.457 121.998 C 236.772 120.828,236.905 121.092,236.829 112.801 C 236.794 108.922,236.622 105.093,236.447 104.291 C 236.272 103.490,235.986 101.231,235.813 99.271 C 235.449 95.166,235.044 92.558,234.553 91.174 C 234.363 90.640,233.980 88.778,233.701 87.037 C 233.423 85.296,233.058 83.620,232.892 83.312 C 232.725 83.005,232.350 81.660,232.057 80.324 C 231.765 78.988,231.321 77.457,231.070 76.923 C 230.820 76.389,230.385 75.116,230.104 74.095 C 229.823 73.074,229.457 72.155,229.290 72.052 C 229.124 71.949,228.988 71.517,228.988 71.093 C 228.988 70.669,228.842 70.232,228.664 70.121 C 228.486 70.011,228.340 69.686,228.340 69.399 C 228.340 67.025,220.116 52.105,216.866 48.583 C 215.108 46.677,210.651 42.753,210.246 42.753 C 210.111 42.753,209.718 42.497,209.373 42.184 C 208.464 41.359,207.322 40.660,204.164 38.995 C 199.337 36.449,196.971 35.304,196.537 35.304 C 196.358 35.304,195.679 35.073,195.029 34.791 C 194.378 34.509,193.368 34.071,192.783 33.819 C 192.198 33.567,191.510 33.360,191.255 33.360 C 190.827 33.360,189.127 32.707,187.778 32.025 C 187.468 31.869,186.958 31.735,186.644 31.727 C 186.330 31.720,185.053 31.345,183.806 30.896 C 182.559 30.446,181.028 29.963,180.405 29.822 C 178.442 29.380,176.380 28.809,175.709 28.523 C 175.352 28.371,173.822 27.988,172.308 27.672 C 170.794 27.356,169.393 26.976,169.196 26.827 C 168.999 26.678,167.423 26.261,165.695 25.900 C 163.966 25.539,162.305 25.114,162.004 24.956 C 161.704 24.798,160.291 24.426,158.866 24.130 C 157.441 23.834,155.984 23.471,155.628 23.323 C 154.433 22.828,153.911 22.715,153.716 22.910 M304.777 44.067 C 299.591 44.520,296.217 45.178,293.878 46.196 C 293.317 46.440,292.620 46.640,292.330 46.640 C 290.608 46.640,281.449 51.879,277.409 55.175 C 273.681 58.217,268.004 65.021,266.222 68.585 C 265.977 69.074,265.618 69.692,265.424 69.960 C 264.750 70.889,262.420 76.612,261.863 78.704 C 261.555 79.862,261.174 81.174,261.015 81.619 C 260.134 84.097,259.543 94.085,260.058 97.813 C 260.672 102.262,260.978 104.058,261.327 105.263 C 261.508 105.887,261.865 107.126,262.122 108.016 C 262.880 110.650,266.312 117.934,267.105 118.593 C 267.339 118.787,267.530 119.081,267.530 119.247 C 267.530 121.404,277.233 131.051,282.778 134.407 C 284.278 135.315,285.725 136.199,285.992 136.370 C 286.259 136.541,286.842 136.835,287.287 137.022 C 287.733 137.209,288.680 137.636,289.393 137.971 C 291.923 139.162,296.555 140.563,299.109 140.909 C 300.534 141.102,302.648 141.469,303.806 141.724 C 306.500 142.318,311.382 142.318,313.770 141.725 C 314.792 141.471,316.939 141.098,318.543 140.896 C 320.146 140.694,321.881 140.319,322.398 140.062 C 322.915 139.805,323.599 139.595,323.917 139.595 C 324.236 139.595,324.586 139.449,324.696 139.271 C 324.806 139.093,325.204 138.947,325.581 138.947 C 329.800 138.947,342.799 129.274,347.995 122.267 C 350.464 118.937,354.332 112.098,354.332 111.061 C 354.332 110.865,354.534 110.246,354.780 109.685 C 355.308 108.483,356.092 105.759,356.565 103.482 C 356.750 102.591,357.082 100.988,357.302 99.919 C 357.957 96.748,358.023 89.637,357.426 86.640 C 357.143 85.215,356.756 83.247,356.567 82.267 C 353.936 68.633,342.904 54.571,330.364 48.867 C 329.563 48.503,328.178 47.872,327.287 47.467 C 326.397 47.061,324.794 46.473,323.725 46.160 C 322.656 45.847,321.417 45.464,320.972 45.309 C 319.887 44.930,316.343 44.409,312.389 44.048 C 308.822 43.723,308.724 43.723,304.777 44.067 M315.889 48.930 C 317.170 49.121,318.472 49.413,318.781 49.578 C 319.090 49.743,319.547 49.879,319.796 49.879 C 320.442 49.879,323.493 50.836,325.020 51.518 C 325.733 51.836,326.826 52.321,327.449 52.596 C 330.543 53.960,333.509 56.006,332.416 56.022 C 332.030 56.028,331.665 55.923,331.606 55.789 C 331.484 55.515,329.932 54.764,327.773 53.935 C 326.972 53.627,326.096 53.265,325.827 53.130 C 325.558 52.996,324.174 52.625,322.750 52.306 C 321.327 51.988,319.537 51.530,318.774 51.289 C 316.781 50.659,305.588 50.682,303.348 51.320 C 302.442 51.578,300.753 52.025,299.595 52.314 C 288.156 55.163,277.212 64.299,272.058 75.304 C 271.474 76.551,270.807 77.944,270.577 78.399 C 267.232 85.017,266.745 97.660,269.469 107.188 C 269.848 108.513,270.345 109.971,270.574 110.427 C 270.803 110.882,271.626 112.567,272.403 114.170 C 274.888 119.298,279.756 125.266,284.293 128.745 C 287.829 131.457,287.869 131.497,287.045 131.498 C 286.644 131.498,286.316 131.352,286.316 131.174 C 286.316 130.996,286.177 130.850,286.006 130.850 C 285.669 130.850,283.541 129.536,282.741 128.834 C 282.468 128.594,281.739 128.085,281.122 127.703 C 277.131 125.232,268.894 114.238,267.706 109.798 C 267.587 109.352,267.356 108.696,267.193 108.340 C 266.182 106.134,265.663 104.227,264.855 99.757 C 264.375 97.101,264.380 88.559,264.863 85.992 C 265.791 81.062,266.649 77.925,267.251 77.263 C 267.405 77.094,267.530 76.752,267.530 76.504 C 267.530 75.995,269.824 71.343,270.728 70.017 C 271.054 69.540,271.889 68.286,272.583 67.231 C 274.168 64.822,278.728 59.989,281.235 58.060 C 283.242 56.516,286.287 54.413,286.517 54.413 C 286.591 54.413,287.196 54.077,287.861 53.666 C 288.525 53.255,289.798 52.651,290.688 52.325 C 291.579 51.998,292.483 51.594,292.696 51.426 C 293.238 51.002,298.327 49.570,301.053 49.076 C 303.905 48.558,312.808 48.471,315.889 48.930 M312.996 55.643 C 313.393 56.285,312.464 56.745,310.251 57.001 C 299.523 58.244,290.480 63.601,283.725 72.715 C 280.773 76.697,279.542 75.690,281.996 71.302 C 285.384 65.243,292.823 58.946,297.913 57.828 C 298.478 57.703,299.023 57.467,299.125 57.303 C 299.226 57.139,299.641 57.004,300.046 57.004 C 300.451 57.004,300.889 56.895,301.020 56.761 C 301.736 56.027,312.606 55.012,312.996 55.643 M309.556 72.378 C 310.540 72.110,312.790 71.640,314.413 71.364 C 314.992 71.265,315.463 71.309,315.461 71.463 C 315.450 72.065,314.617 74.071,313.895 75.232 C 312.756 77.064,312.862 78.260,314.374 80.675 C 316.717 84.415,316.603 84.574,312.211 83.686 L 309.278 83.093 306.650 85.838 L 304.022 88.583 303.790 87.611 C 303.663 87.077,303.541 86.023,303.520 85.270 C 303.452 82.837,302.626 81.347,300.929 80.601 C 295.601 78.256,295.631 78.378,299.825 76.219 C 302.596 74.793,302.834 74.471,302.834 72.154 C 302.834 71.114,303.055 69.734,303.324 69.089 L 303.815 67.915 306.241 70.268 C 308.415 72.376,308.759 72.595,309.556 72.378 M324.769 79.109 C 324.916 79.332,325.856 80.296,326.858 81.252 L 328.679 82.990 332.125 82.425 C 336.279 81.744,336.176 81.666,334.776 84.418 C 332.721 88.457,332.713 88.352,335.400 92.794 C 336.604 94.783,336.137 95.235,333.722 94.415 C 331.936 93.808,329.261 93.780,328.687 94.361 C 328.452 94.599,327.542 95.619,326.665 96.628 C 324.797 98.777,323.887 99.019,323.887 97.365 C 323.887 96.318,323.132 93.334,322.608 92.309 C 322.335 91.775,320.348 90.726,317.976 89.864 C 315.917 89.116,315.969 89.020,319.473 87.131 C 322.829 85.322,322.903 85.201,322.911 81.517 C 322.917 79.195,323.946 77.860,324.769 79.109 M297.151 92.604 C 298.627 94.129,299.419 94.245,302.719 93.418 C 305.648 92.683,305.940 92.969,304.730 95.385 C 303.320 98.200,302.884 99.525,303.186 100.081 C 303.331 100.348,304.036 101.571,304.752 102.799 C 306.512 105.813,306.441 105.850,300.418 105.075 C 299.169 104.914,299.077 104.973,296.808 107.394 C 294.393 109.970,293.765 110.183,293.765 108.425 C 293.765 107.869,293.624 106.967,293.451 106.420 C 293.278 105.873,293.058 104.903,292.961 104.266 C 292.793 103.158,289.563 101.053,288.032 101.053 C 287.601 101.053,286.640 100.165,286.640 99.766 C 286.640 99.618,287.040 99.340,287.530 99.149 C 292.092 97.369,292.998 96.117,293.086 91.471 C 293.134 88.951,293.794 89.135,297.151 92.604 M315.973 103.968 C 318.420 106.340,318.890 106.522,320.689 105.792 C 323.526 104.642,326.136 105.026,324.910 106.413 C 324.761 106.582,324.443 107.231,324.203 107.854 C 323.964 108.478,323.503 109.335,323.180 109.760 C 322.361 110.835,322.440 111.585,323.563 113.410 C 324.097 114.279,324.534 115.066,324.534 115.160 C 324.534 115.253,324.859 115.769,325.255 116.305 C 326.387 117.836,325.544 117.961,320.200 117.055 C 318.957 116.845,318.913 116.873,316.434 119.517 C 313.480 122.668,313.361 122.650,313.081 119.010 C 312.810 115.483,312.670 115.244,310.222 114.123 C 305.410 111.918,305.449 112.075,309.228 110.084 L 312.065 108.589 312.435 106.521 C 312.638 105.384,312.820 103.931,312.840 103.293 C 312.872 102.212,313.075 101.700,313.471 101.700 C 313.561 101.700,314.687 102.721,315.973 103.968 M289.231 132.146 C 289.231 132.324,289.021 132.470,288.764 132.470 C 288.507 132.470,288.207 132.324,288.097 132.146 C 287.987 131.968,288.197 131.822,288.564 131.822 C 288.931 131.822,289.231 131.968,289.231 132.146 M227.938 186.316 C 228.540 187.066,229.446 195.476,229.428 200.162 C 229.411 204.696,228.214 219.595,227.710 221.538 C 227.548 222.162,227.171 224.202,226.872 226.073 C 226.574 227.943,226.182 230.275,226.003 231.255 C 225.823 232.235,225.614 233.474,225.538 234.008 C 225.461 234.543,225.257 235.490,225.084 236.113 C 224.506 238.193,224.212 241.891,224.637 241.728 C 225.048 241.571,227.820 238.481,229.651 236.141 C 230.266 235.354,231.093 234.354,231.488 233.918 C 231.883 233.483,232.293 232.851,232.400 232.514 C 232.507 232.178,232.698 231.903,232.825 231.903 C 232.952 231.903,233.635 231.085,234.342 230.086 C 235.049 229.086,235.932 227.884,236.304 227.413 C 236.677 226.943,237.764 225.393,238.721 223.968 C 239.678 222.543,240.542 221.304,240.641 221.215 C 241.044 220.852,246.359 212.511,248.546 208.808 C 250.602 205.327,253.603 199.363,253.603 198.756 C 253.603 197.234,255.312 197.058,256.350 198.474 C 257.483 200.018,257.125 208.682,255.798 211.822 C 255.408 212.744,255.005 214.424,254.554 217.004 C 254.382 217.984,254.118 219.077,253.967 219.433 C 253.506 220.522,253.006 222.281,252.771 223.644 C 252.648 224.356,252.443 225.085,252.315 225.263 C 251.984 225.725,251.012 228.851,251.012 229.454 C 251.012 230.632,253.505 229.224,258.632 225.151 C 260.606 223.583,261.651 223.526,260.891 225.027 C 260.646 225.513,260.213 226.421,259.930 227.045 C 259.647 227.668,259.297 228.397,259.153 228.664 C 258.889 229.152,258.020 230.979,256.261 234.745 C 255.311 236.779,255.408 237.604,256.483 236.631 C 256.798 236.346,257.214 236.113,257.407 236.113 C 257.601 236.113,257.808 236.004,257.868 235.870 C 257.927 235.737,259.067 234.899,260.400 234.008 C 261.733 233.117,262.972 232.274,263.153 232.134 C 263.334 231.995,264.554 231.120,265.863 230.191 C 267.173 229.262,268.445 228.360,268.688 228.185 C 269.901 227.320,270.637 232.671,270.294 239.863 C 269.953 247.012,268.979 248.947,260.697 258.932 C 257.800 262.424,255.536 263.984,252.963 264.261 L 251.174 264.453 250.850 266.292 C 250.672 267.303,250.417 268.238,250.283 268.370 C 250.150 268.502,250.040 269.014,250.040 269.509 C 250.040 270.003,249.895 270.497,249.717 270.607 C 249.538 270.717,249.393 271.019,249.393 271.278 C 249.393 273.605,241.834 282.260,232.865 290.202 C 231.356 291.538,229.580 293.124,228.919 293.725 C 228.257 294.327,227.289 295.129,226.766 295.507 C 226.244 295.885,224.964 296.866,223.921 297.686 C 218.594 301.875,213.670 304.622,210.618 305.106 C 209.409 305.298,207.530 305.594,206.440 305.764 C 202.594 306.364,198.373 306.123,192.226 304.952 C 189.147 304.365,185.080 301.901,177.428 295.983 C 176.126 294.976,174.688 293.810,174.232 293.392 C 173.777 292.974,172.319 291.693,170.994 290.545 C 165.180 285.513,155.759 275.433,154.934 273.360 C 154.686 272.737,154.284 271.789,154.042 271.255 C 153.572 270.218,152.540 265.802,152.546 264.858 C 152.550 264.398,152.260 264.290,151.012 264.284 C 148.214 264.271,145.760 262.577,142.346 258.300 C 141.493 257.231,140.703 256.283,140.592 256.194 C 139.055 254.971,134.091 247.046,134.090 245.814 C 134.089 245.538,133.966 245.173,133.815 245.004 C 132.715 243.770,132.690 233.363,133.776 228.502 C 133.935 227.789,134.157 226.582,134.269 225.819 C 134.761 222.482,136.037 221.274,137.410 222.845 C 137.950 223.462,138.990 224.613,139.722 225.403 C 140.454 226.192,141.385 227.285,141.791 227.832 C 142.198 228.379,143.153 229.482,143.913 230.283 C 144.674 231.085,145.931 232.506,146.707 233.441 C 148.428 235.516,149.154 235.681,148.844 233.927 C 148.726 233.259,148.504 231.619,148.350 230.283 C 148.197 228.947,147.926 226.688,147.749 225.263 C 147.567 223.808,147.549 222.544,147.706 222.380 C 147.980 222.093,152.157 225.720,155.142 228.836 C 158.816 232.674,160.491 233.556,160.192 231.498 C 158.929 222.793,159.592 209.351,161.411 206.804 C 161.793 206.270,162.403 205.278,162.767 204.600 C 163.873 202.540,171.122 195.628,172.177 195.628 C 172.310 195.628,172.649 195.424,172.930 195.175 C 173.794 194.409,175.935 193.317,176.150 193.532 C 176.262 193.643,176.319 199.663,176.278 206.908 C 176.208 219.276,176.448 227.054,177.133 234.656 C 177.294 236.437,177.440 238.224,177.457 238.626 C 177.505 239.695,178.640 238.931,179.505 237.247 C 179.871 236.534,180.879 234.875,181.745 233.558 C 182.611 232.242,183.320 231.105,183.320 231.031 C 183.320 230.957,184.103 229.838,185.060 228.544 C 186.017 227.250,187.177 225.618,187.638 224.917 C 194.872 213.923,212.932 194.933,221.868 188.926 C 226.147 186.048,227.319 185.545,227.938 186.316 " stroke="none" fill="#f28b2b" fill-rule="evenodd"></path></g></svg>